<?xml version="1.0" standalone="no"?><svg xmlns="http://www.w3.org/2000/svg" viewBox="0 0 1440 320"><path fill="#5E3DEE" fill-opacity="1" d="M0,128L30,122.7C60,117,120,107,180,96C240,85,300,75,360,80C420,85,480,107,540,128C600,149,660,171,720,165.3C780,160,840,128,900,144C960,160,1020,224,1080,229.3C1140,235,1200,181,1260,154.7C1320,128,1380,128,1410,128L1440,128L1440,0L1410,0C1380,0,1320,0,1260,0C1200,0,1140,0,1080,0C1020,0,960,0,900,0C840,0,780,0,720,0C660,0,600,0,540,0C480,0,420,0,360,0C300,0,240,0,180,0C120,0,60,0,30,0L0,0Z"></path></svg>